<svg xmlns="http://www.w3.org/2000/svg" width="386" height="87" fill="none" viewBox="0 0 386 87">
  <g clip-path="url(#clip0)">
    <path fill="#F93557" d="M40.246 23.528H25.038a12.877 12.877 0 00-8.443 4.061 12.749 12.749 0 00-3.421 8.686c0 3.22 1.222 6.323 3.421 8.686a12.877 12.877 0 008.443 4.062h6.616c.463 0 .908.183 1.236.51a1.735 1.735 0 010 2.46c-.328.326-.773.51-1.236.51H15.836v11.045h15.818a12.96 12.96 0 009.118-3.82 12.827 12.827 0 003.733-9.117 12.829 12.829 0 00-3.84-9.072 12.962 12.962 0 00-9.164-3.713h-6.463c-.464 0-.91-.183-1.237-.51a1.736 1.736 0 010-2.46c.328-.327.773-.51 1.237-.51h15.208V23.528zM61.31 23.68H50.284v39.868H61.31V23.679z"/>
    <path fill="#B92C44" d="M61.31.227H50.284v11.575H61.31V.227z"/>
    <path fill="#BC5126" d="M79.637 23.604H68.611v17.55a17.562 17.562 0 013.007-9.843 17.7 17.7 0 018.02-6.497v-1.21z"/>
    <path fill="#FF6D33" d="M86.253 23.604a16.577 16.577 0 00-6.615 1.21v16.34c0-1.745.697-3.419 1.937-4.653a6.633 6.633 0 014.678-1.928c1.755 0 3.438.694 4.678 1.928a6.565 6.565 0 011.938 4.654 17.623 17.623 0 011.424-6.95 17.7 17.7 0 014.051-5.835 17.157 17.157 0 00-12.09-4.767zM79.637 24.814a17.7 17.7 0 00-8.019 6.497 17.562 17.562 0 00-3.007 9.844V63.85h11.026V24.814z"/>
    <path fill="#FF6D33" d="M110.511 23.604a17.235 17.235 0 00-12.167 4.766 17.473 17.473 0 014.111 5.818c.955 2.2 1.445 4.571 1.44 6.967 0-1.746.697-3.42 1.938-4.654a6.633 6.633 0 014.678-1.928c1.755 0 3.437.694 4.678 1.928a6.564 6.564 0 011.938 4.654V63.85h11.026V41.155c0-4.655-1.858-9.12-5.167-12.41a17.69 17.69 0 00-12.475-5.141z"/>
    <path fill="#BC5126" d="M98.344 28.37a17.7 17.7 0 00-4.051 5.835 17.625 17.625 0 00-1.424 6.95V63.85h11.026V41.155a17.382 17.382 0 00-1.44-6.967 17.476 17.476 0 00-4.11-5.818z"/>
    <path fill="#F5C43B" d="M155.453 23.528a19.934 19.934 0 00-8.745 2.194v17.854a8.971 8.971 0 011.488-5.023 9.036 9.036 0 014.046-3.348 9.091 9.091 0 015.234-.544 9.064 9.064 0 014.653 2.446 8.987 8.987 0 012.498 4.609 8.96 8.96 0 01-.502 5.211 9.013 9.013 0 01-3.332 4.053 9.082 9.082 0 01-11.407-1.087 8.98 8.98 0 01-2.678-6.317v17.778a20.167 20.167 0 0011.731 1.99 20.122 20.122 0 0010.803-4.965 19.957 19.957 0 006.079-10.177 19.869 19.869 0 00-.781-11.813 20.139 20.139 0 00-7.396-9.315 20.302 20.302 0 00-11.386-3.546"/>
    <path fill="#F5C43B" d="M146.708 23.528h-11.33v20.048a19.9 19.9 0 013.099-10.539 20.042 20.042 0 018.231-7.315v-2.194zm-11.33 20.048v43.5h11.33V61.354a20.039 20.039 0 01-8.036-7.34 19.895 19.895 0 01-2.99-10.438"/>
    <path fill="#C89E28" d="M146.708 25.722a20.037 20.037 0 00-8.056 7.372 19.902 19.902 0 00-2.97 10.482 19.895 19.895 0 002.99 10.437 20.045 20.045 0 008.036 7.34V25.723z"/>
    <path fill="#F5C43B" d="M192.943.076h-11.026v63.547h11.026V.077z"/>
    <path fill="#6CE483" d="M211.346 23.68h-11.103v39.868h11.103V23.679z"/>
    <path fill="#43A255" d="M211.346.227h-11.103v11.575h11.103V.227z"/>
    <path fill="#6CE483" d="M236.288 23.528h-5.247v11.045h5.247V23.528zm-16.273 0h-3.194v11.045h3.194V23.528z"/>
    <path fill="#6CE483" d="M236.288 0h-5.475a10.83 10.83 0 00-7.636 3.146 10.714 10.714 0 00-3.162 7.597v12.785h11.026V11.045h5.247V0zm-5.247 34.497h-11.026v29.05h11.026V34.574"/>
    <path fill="#43A155" d="M231.041 23.604h-11.026v10.969h11.026v-10.97z"/>
    <path fill="#5784F9" d="M252.334 23.68h-11.027v39.868h11.027V23.679z"/>
    <path fill="#3956A4" d="M252.334.227h-11.027v11.575h11.027V.227z"/>
    <path fill="#5784F9" d="M278.873 23.452a20.161 20.161 0 00-9.466 2.345 20.044 20.044 0 00-7.237 6.508 19.88 19.88 0 00-1.883 18.734 19.979 19.979 0 005.799 7.804 20.118 20.118 0 008.811 4.163c3.237.646 6.584.488 9.744-.46a20.092 20.092 0 008.376-4.975l-7.604-7.565a9.068 9.068 0 01-4.633 2.473 9.093 9.093 0 01-5.233-.507 9.042 9.042 0 01-4.066-3.316 8.967 8.967 0 010-10.01 9.042 9.042 0 014.066-3.315 9.094 9.094 0 015.233-.507 9.068 9.068 0 014.633 2.473l7.604-7.566a20 20 0 00-6.49-4.312 20.083 20.083 0 00-7.654-1.513"/>
    <path fill="#AC51E6" d="M335.526 23.604H324.5v2.118a20.028 20.028 0 018.055 7.372 19.894 19.894 0 012.971 10.482V23.603zm0 19.972a19.894 19.894 0 01-2.971 10.48 20.027 20.027 0 01-8.055 7.373v2.119h11.026V43.576zM315.45 23.603a20.16 20.16 0 00-8.735 2.015 20.064 20.064 0 00-6.983 5.598 19.93 19.93 0 00-3.836 8.063 19.874 19.874 0 00.076 8.92 19.935 19.935 0 003.972 7.999 20.058 20.058 0 007.076 5.48 20.163 20.163 0 0017.479-.248V43.575c0 1.78-.53 3.52-1.525 5.001a9.035 9.035 0 01-4.061 3.316 9.092 9.092 0 01-9.862-1.952 8.99 8.99 0 01-2.476-4.61 8.96 8.96 0 01.515-5.2 9.008 9.008 0 013.333-4.04 9.08 9.08 0 015.027-1.518c2.4 0 4.702.948 6.399 2.637a8.98 8.98 0 012.65 6.366V25.722a19.853 19.853 0 00-9.049-2.119z"/>
    <path fill="#893ABB" d="M324.5 25.722V61.43a20.028 20.028 0 008.055-7.373 19.894 19.894 0 002.971-10.481 19.894 19.894 0 00-2.971-10.482 20.028 20.028 0 00-8.055-7.372z"/>
    <path fill="#AC51E6" d="M370.587 38.986h-9.962v9.154h9.962v-9.154zm-19.163 0h-9.962v9.154h9.962v-9.154z"/>
    <path fill="#AC51E6" d="M360.625 29.076h-9.202v9.91h9.202v-9.91zm0 19.064h-9.202v9.91h9.202v-9.91z"/>
    <path fill="#893ABB" d="M360.625 38.986h-9.202v9.154h9.202v-9.154z"/>
  </g>
  <defs>
    <clipPath id="clip0">
      <path fill="#fff" d="M0 0h386v87H0z"/>
    </clipPath>
  </defs>
</svg>
